<?xml version="1.0" encoding="utf-8"?>
<!-- Generator: Adobe Illustrator 16.0.0, SVG Export Plug-In . SVG Version: 6.00 Build 0)  -->
<!DOCTYPE svg PUBLIC "-//W3C//DTD SVG 1.1//EN" "http://www.w3.org/Graphics/SVG/1.1/DTD/svg11.dtd">
<svg version="1.1" id="Layer_1" xmlns="http://www.w3.org/2000/svg" xmlns:xlink="http://www.w3.org/1999/xlink" x="0px" y="0px"
	 width="50px" height="50px" viewBox="0 0 50 50" enable-background="new 0 0 50 50" xml:space="preserve">
<path fill="#2E3238" d="M25.463,27.273c-1.197-0.518-1.761-0.826-1.761-1.409c0-0.545,0.556-1.109,1.487-1.109
	c0.908,0,1.528,0.588,1.53,0.589l0.654,0.654l1.154-1.774l-0.415-0.43c-0.034-0.035-0.737-0.75-1.986-1.004v-1.354h-2.079v1.416
	c-1.436,0.418-2.452,1.627-2.452,3.025c0,1.965,1.646,2.69,2.969,3.272c1.288,0.566,1.895,0.91,1.895,1.619
	c0,0.766-0.68,1.109-1.353,1.109c-1.193,0-1.938-0.777-1.964-0.807l-0.564-0.619l-1.377,1.566l0.431,0.496
	c0.04,0.045,0.885,0.996,2.416,1.318v1.35h2.079v-1.369c1.466-0.383,2.439-1.568,2.439-3.072
	C28.566,28.613,26.772,27.838,25.463,27.273z"/>
<g>
	<path fill="#2E3238" d="M36.301,40.736H13.694c-0.552,0-1-0.447-1-1V26.674H8.312c-0.412,0-0.781-0.252-0.931-0.635
		c-0.15-0.384-0.05-0.821,0.253-1.1L24.32,9.528c0.383-0.354,0.974-0.354,1.356,0l16.689,15.411
		c0.302,0.279,0.402,0.716,0.253,1.098c-0.15,0.385-0.52,0.637-0.932,0.637h-4.387v13.063
		C37.301,40.289,36.854,40.736,36.301,40.736z M14.694,38.736h20.607V25.673c0-0.552,0.447-1,1-1h2.83L24.999,11.625l-14.13,13.049
		h2.825c0.552,0,1,0.448,1,1V38.736z"/>
</g>
</svg>
