<?xml version="1.0" encoding="utf-8"?>
<!-- Generator: Adobe Illustrator 16.0.0, SVG Export Plug-In . SVG Version: 6.00 Build 0)  -->
<!DOCTYPE svg PUBLIC "-//W3C//DTD SVG 1.1//EN" "http://www.w3.org/Graphics/SVG/1.1/DTD/svg11.dtd">
<svg version="1.1" id="Layer_1" xmlns="http://www.w3.org/2000/svg" xmlns:xlink="http://www.w3.org/1999/xlink" x="0px" y="0px"
	 width="50px" height="50px" viewBox="0 0 50 50" enable-background="new 0 0 50 50" xml:space="preserve">
<g>
	<path fill="#2E3238" d="M43.434,25.777L27.32,9.663c-0.211-0.243-0.537-0.374-0.866-0.339l-5.008,0.554l-0.267-0.267
		c-0.214-0.214-0.518-0.317-0.817-0.287L8.475,10.637c-0.465,0.051-0.833,0.418-0.884,0.884L6.28,23.408
		c-0.033,0.301,0.072,0.602,0.287,0.816l16.165,16.164c0.188,0.188,0.442,0.293,0.707,0.293c0.266,0,0.52-0.105,0.707-0.293
		l2.339-2.34l2.34,2.34c0.188,0.188,0.441,0.293,0.707,0.293s0.52-0.105,0.707-0.293l13.195-13.197
		C43.824,26.801,43.824,26.168,43.434,25.777z M23.438,38.268L8.32,23.15l1.171-10.613l10.612-1.171l15.117,15.118L23.438,38.268z
		 M29.531,38.268l-1.633-1.633l9.443-9.443c0.391-0.391,0.391-1.023,0-1.414L23.258,11.689l2.937-0.324l15.118,15.119L29.531,38.268
		z"/>
	<path fill="#2E3238" d="M11.915,14.964c-1.186,1.188-1.186,3.124,0.001,4.315c0.577,0.576,1.343,0.893,2.158,0.893
		s1.581-0.316,2.158-0.893c0.577-0.577,0.895-1.344,0.895-2.158c0-0.815-0.318-1.582-0.895-2.158
		C15.078,13.811,13.07,13.81,11.915,14.964z M14.817,17.864c-0.397,0.397-1.091,0.396-1.486,0.001
		c-0.41-0.41-0.41-1.078-0.001-1.488c0.199-0.198,0.463-0.308,0.744-0.308s0.545,0.109,0.744,0.308
		c0.199,0.199,0.309,0.463,0.309,0.744C15.126,17.401,15.016,17.666,14.817,17.864z"/>
</g>
</svg>
