<?xml version="1.0" encoding="utf-8"?>
<!-- Generator: Adobe Illustrator 16.0.0, SVG Export Plug-In . SVG Version: 6.00 Build 0)  -->
<!DOCTYPE svg PUBLIC "-//W3C//DTD SVG 1.1//EN" "http://www.w3.org/Graphics/SVG/1.1/DTD/svg11.dtd">
<svg version="1.1" id="Layer_1" xmlns="http://www.w3.org/2000/svg" xmlns:xlink="http://www.w3.org/1999/xlink" x="0px" y="0px"
	 width="50px" height="50px" viewBox="0 0 50 50" enable-background="new 0 0 50 50" xml:space="preserve">
<path fill="#2E3238" d="M40.239,9.249H9.761c-0.552,0-1,0.448-1,1v29.502c0,0.553,0.448,1,1,1s1-0.447,1-1V11.249h6.808v3.749
	h-3.402c-0.552,0-1,0.447-1,1v13.919c0,0.553,0.448,1,1,1h23.202c0.553,0,1-0.447,1-1V15.998c0-0.553-0.447-1-1-1h-3.401v-3.749
	h6.272c0.553,0,1-0.448,1-1S40.792,9.249,40.239,9.249z M36.368,28.917H15.166V16.998h21.202V28.917z M31.967,14.998H19.568v-3.749
	h12.398V14.998z"/>
</svg>
