<?xml version="1.0" encoding="utf-8"?>
<!-- Generator: Adobe Illustrator 16.0.0, SVG Export Plug-In . SVG Version: 6.00 Build 0)  -->
<!DOCTYPE svg PUBLIC "-//W3C//DTD SVG 1.1//EN" "http://www.w3.org/Graphics/SVG/1.1/DTD/svg11.dtd">
<svg version="1.1" id="Layer_1" xmlns="http://www.w3.org/2000/svg" xmlns:xlink="http://www.w3.org/1999/xlink" x="0px" y="0px"
	 width="50px" height="50px" viewBox="0 0 50 50" enable-background="new 0 0 50 50" xml:space="preserve">
<g>
	<path fill="#2E3238" d="M42.366,24.938L25.678,9.528c-0.383-0.354-0.975-0.354-1.357,0L7.634,24.938
		c-0.303,0.279-0.403,0.716-0.253,1.1c0.15,0.383,0.52,0.636,0.931,0.636h4.382v13.063c0,0.553,0.448,1,1,1h22.606
		c0.553,0,1-0.447,1-1V26.674h4.387c0.412,0,0.781-0.253,0.932-0.637C42.769,25.654,42.668,25.218,42.366,24.938z M36.301,24.673
		c-0.553,0-1,0.448-1,1v13.063H14.694V25.673c0-0.552-0.448-1-1-1h-2.825l14.13-13.049l14.132,13.049H36.301z"/>
	<path fill="#2E3238" d="M23.569,21.974v7.667c-1.121,0.411-1.928,1.479-1.928,2.741c0,1.613,1.313,2.926,2.928,2.926
		c1.613,0,2.926-1.313,2.926-2.926c0-1.262-0.806-2.33-1.926-2.741v-2.427h1.33c0.553,0,1-0.447,1-1s-0.447-1-1-1h-1.33v-1.077
		h2.622c0.553,0,1-0.448,1-1s-0.447-1-1-1h-2.622v-0.163c0-0.552-0.447-1-1-1S23.569,21.422,23.569,21.974z M24.569,33.308
		c-0.512,0-0.928-0.415-0.928-0.926c0-0.512,0.416-0.929,0.928-0.929c0.511,0,0.926,0.417,0.926,0.929
		C25.495,32.893,25.08,33.308,24.569,33.308z"/>
</g>
</svg>
